<svg xmlns="http://www.w3.org/2000/svg" xmlns:svg="http://www.w3.org/2000/svg" xmlns:xlink="http://www.w3.org/1999/xlink" version="1.0" height="590pt" width="960pt" viewBox="435 46.999999999999986 968 596" ><defs><style type="text/css">
            @font-face {
                font-family: 'lt_regular';
                src: url('https://app.creately.com/diagram/assets/fonts/lato/lt-regular-webfont.woff2') format('woff2'),
                    url('https://app.creately.com/diagram/assets/fonts/lato/lt-regular-webfont.woff') format('woff');
                font-weight: normal;
                font-style: normal;
            }
            @font-face {
                font-family: 'noto_regular';
                src: url('https://app.creately.com/diagram/assets/fonts/noto/noto-regular.woff') format('woff'),
                     url('https://app.creately.com/diagram/assets/fonts/noto/noto-regular.woff2') format('woff2');
                font-weight: normal;
                font-style: normal;
            }
        p {
            margin: 0;
        }
        </style></defs><defs><style>
            span{ display: inline-block; }
        </style></defs><g id="GDZplMu7MFb"><g transform="translate(440 49.999999999999986)"><rect x="0" y="0" width="960" height="590" fill="rgb(166,179,178)" stroke="#030303" stroke-width="2" stroke-linecap="round" stroke-linejoin="round" stroke-dasharray="0 0"/><path d="M 0,30 L 672,30 L 687,15 L 687,0 M 0,30 Z" fill="none" stroke="#030303" stroke-width="2" stroke-linecap="round" stroke-linejoin="round" stroke-dasharray="0 0"/></g><g transform="translate(448, 56.499999999999986) rotate(0, 0, 8.5)" width="0" height="17"><text text-decoration="none" x="0" fill="#4b4b4b" font-size="10pt" font-family="noto_regular"  y="15"></text></g></g><g id="offIFRmdBv0"><g transform="translate(650 100)"><rect x="0" y="0" width="100" height="45" fill="rgb(226,78,51)" stroke="#e24e33" stroke-width="2" stroke-linecap="round" stroke-linejoin="round" stroke-dasharray="0 0"/><path d="M 50,45 L 50,500" fill="rgb(226,78,51)" stroke="#e24e33" stroke-width="2" stroke-linecap="round" stroke-linejoin="round" stroke-dasharray="3 3"/><rect x="0" y="0" width="100" height="500" fill="rgba(255,255,255,0.01)" stroke="rgba(255,255,255,0.01)" stroke-width="2" stroke-linecap="round" stroke-linejoin="round" stroke-dasharray="3 3"/></g><g transform="translate(676, 105) rotate(0, 24, 0)" width="48" height="35"><text text-decoration="none" x="0" fill="#ffffff" font-size="10pt" font-family="lt_regular"  y="14">Website</text><text text-decoration="none" x="48" fill="#ffffff" font-size="10pt" font-family="lt_regular"  y="14"></text><text text-decoration="none" x="24" fill="#4b4b4b" font-size="10pt" font-family="noto_regular"  y="33"></text></g></g><g id="xJ88QTSrfLW"><g transform="translate(950 100)"><rect x="0" y="0" width="99.99999999999999" height="47" fill="rgb(39,59,79)" stroke="#273b4f" stroke-width="2" stroke-linecap="round" stroke-linejoin="round" stroke-dasharray="0 0"/><path d="M 49.99999999999999,47 L 49.99999999999999,500" fill="rgb(39,59,79)" stroke="#273b4f" stroke-width="2" stroke-linecap="round" stroke-linejoin="round" stroke-dasharray="3 3"/><rect x="0" y="0" width="99.99999999999999" height="500" fill="rgba(255,255,255,0.01)" stroke="rgba(255,255,255,0.01)" stroke-width="2" stroke-linecap="round" stroke-linejoin="round" stroke-dasharray="3 3"/></g><g transform="translate(963, 105) rotate(0, 37, 0)" width="74" height="37"><text text-decoration="none" x="0" fill="#ffffff" font-size="10pt" font-family="lt_regular"  y="14">ticketServer:&#160;</text><text text-decoration="none" x="18" fill="#ffffff" font-size="10pt" font-family="lt_regular"  y="33">Server</text><text text-decoration="none" x="56" fill="#4b4b4b" font-size="10pt" font-family="noto_regular"  y="33"></text></g></g><g id="M6owScwxdL8"><g transform="translate(1250 100)"><rect x="0" y="0" width="100" height="47" fill="rgb(226,78,51)" stroke="#e24e33" stroke-width="2" stroke-linecap="round" stroke-linejoin="round" stroke-dasharray="0 0"/><path d="M 50,47 L 50,500" fill="rgb(226,78,51)" stroke="#e24e33" stroke-width="2" stroke-linecap="round" stroke-linejoin="round" stroke-dasharray="3 3"/><rect x="0" y="0" width="100" height="500" fill="rgba(255,255,255,0.01)" stroke="rgba(255,255,255,0.01)" stroke-width="2" stroke-linecap="round" stroke-linejoin="round" stroke-dasharray="3 3"/></g><g transform="translate(1263.5, 105) rotate(0, 36.5, 0)" width="73" height="37"><text text-decoration="none" x="0.5" fill="#ffffff" font-size="10pt" font-family="lt_regular"  y="14">:&#160;</text><text text-decoration="none" x="6.5" fill="#ffffff" font-size="10pt" font-family="lt_regular"  y="14">Credit&#160;</text><text text-decoration="none" x="45.5" fill="#ffffff" font-size="10pt" font-family="lt_regular"  y="14">Card&#160;</text><text text-decoration="none" x="15.5" fill="#ffffff" font-size="10pt" font-family="lt_regular"  y="33">Service</text><text text-decoration="none" x="57.5" fill="#4b4b4b" font-size="10pt" font-family="noto_regular"  y="33"></text></g></g><g id="2aEKuJ1dNAj"><g transform="translate(690 170)"><rect x="0" y="0" width="20" height="430" fill="rgb(226,78,51)" stroke="#e24e33" stroke-width="2" stroke-linecap="round" stroke-linejoin="round" stroke-dasharray="0 0"/></g></g><g id="MhYW8hL7SgZ"><g transform="translate(990 170)"><rect x="0" y="0" width="20" height="430" fill="rgb(39,59,79)" stroke="#273b4f" stroke-width="2" stroke-linecap="round" stroke-linejoin="round" stroke-dasharray="0 0"/></g></g><g id="SAag3Mx4XGA"><g transform="translate(1290 170)"><rect x="0" y="0" width="20" height="430" fill="rgb(226,78,51)" stroke="#e24e33" stroke-width="2" stroke-linecap="round" stroke-linejoin="round" stroke-dasharray="0 0"/></g></g><g id="aBz4gwmcxT9"><mask id="ee71f" x="434" y="186" width="270" height="28" maskUnits="userSpaceOnUse"><rect x="434" y="186" width="270" height="28" fill="white" /><rect x="509.11814744801495" y="187" width="117" height="26" fill="black" /></mask><g mask="url(#ee71f)"><path d="M 690,200 L 448,200" fill="none" stroke="#C43731" stroke-width="2" stroke-linecap="round" stroke-linejoin="round" stroke-dasharray="0 0"/></g><g transform="translate(512.118147448015, 190)" width="111" height="20"><text text-decoration="none" x="0.5" fill="#161616" font-weight="bold" font-size="11pt" font-family="lt_regular"  y="16">login&#160;</text><text text-decoration="none" x="37.5" fill="#161616" font-weight="bold" font-size="11pt" font-family="lt_regular"  y="16">to&#160;</text><text text-decoration="none" x="55.5" fill="#161616" font-weight="bold" font-size="11pt" font-family="lt_regular"  y="16">website&#160;</text><text text-decoration="none" x="110.5" fill="#4b4b4b" font-size="10pt" font-family="noto_regular"  y="16"></text></g></g><g id="iDeN9whe6HP"><mask id="0011a" x="434" y="266" width="270" height="28" maskUnits="userSpaceOnUse"><rect x="434" y="266" width="270" height="28" fill="white" /><rect x="503.5689981096407" y="267.5" width="116" height="25" fill="black" /></mask><g mask="url(#0011a)"><path d="M 690,280 L 568,280 Q 558,280 557.618147448015,280 L 448,280" fill="none" stroke="#C43731" stroke-width="2" stroke-linecap="round" stroke-linejoin="round" stroke-dasharray="0 0"/><path d="M 448,280 L 454.95652173913044,286.49717514124296 M 448,280 L 454.95652173913044,273.50282485875704 Z" fill="rgb(255,255,255)" stroke="#C43731" stroke-width="2" stroke-linecap="round" stroke-linejoin="round"/></g><g transform="translate(506.5689981096407, 270.5)" width="110" height="19"><text text-decoration="none" x="3" fill="#161616" font-weight="bold" font-size="10pt" font-family="lt_regular"  y="15">offer&#160;</text><text text-decoration="none" x="35" fill="#161616" font-weight="bold" font-size="10pt" font-family="lt_regular"  y="15">(seatChoice)&#160;</text><text text-decoration="none" x="107" fill="#4b4b4b" font-size="10pt" font-family="noto_regular"  y="15"></text></g></g><g id="fjZCE4DYmhv"><mask id="eca58" x="436" y="226" width="268" height="29" maskUnits="userSpaceOnUse"><rect x="436" y="226" width="268" height="29" fill="white" /><rect x="518.4843837896569" y="228.00631506754308" width="100" height="25" fill="black" /></mask><g mask="url(#eca58)"><path d="M 690,240 L 450,241" fill="none" stroke="#C43731" stroke-width="2" stroke-linecap="round" stroke-linejoin="round" stroke-dasharray="0 0"/><path d="M 690,240 L 683.0164673184613,233.53186651275183 M 690,240 L 683.0706099746521,246.52610399852688 Z" fill="rgb(255,255,255)" stroke="#C43731" stroke-width="2" stroke-linecap="round" stroke-linejoin="round"/></g><g transform="translate(521.4843837896569, 231.00631506754308)" width="94" height="19"><text text-decoration="none" x="3" fill="#161616" font-weight="bold" font-size="10pt" font-family="lt_regular"  y="15">pickDate&#160;</text><text text-decoration="none" x="57" fill="#161616" font-weight="bold" font-size="10pt" font-family="lt_regular"  y="15">(date)&#160;</text><text text-decoration="none" x="91" fill="#4b4b4b" font-size="10pt" font-family="noto_regular"  y="15"></text></g></g><g id="X1IzHNRmNh4"><mask id="bf902" x="435" y="306" width="269" height="28" maskUnits="userSpaceOnUse"><rect x="435" y="306" width="269" height="28" fill="white" /><rect x="520.8375598141718" y="307.51982474863" width="86" height="25" fill="black" /></mask><g mask="url(#bf902)"><path d="M 690,320 L 579.4517958412098,320 Q 579,320 569,320 Q 559.904070093426,320.0191456986303 559.4517959902205,320.0190676212102 L 449,320" fill="none" stroke="#C43731" stroke-width="2" stroke-linecap="round" stroke-linejoin="round" stroke-dasharray="0 0"/><path d="M 690,320 L 683.0434782608696,313.50282485875704 M 690,320 L 683.0434782608696,326.49717514124296 Z" fill="rgb(255,255,255)" stroke="#C43731" stroke-width="2" stroke-linecap="round" stroke-linejoin="round"/></g><g transform="translate(523.8375598141718, 310.51982474863)" width="80" height="19"><text text-decoration="none" x="2" fill="#161616" font-weight="bold" font-size="10pt" font-family="lt_regular"  y="15">select&#160;</text><text text-decoration="none" x="39" fill="#161616" font-weight="bold" font-size="10pt" font-family="lt_regular"  y="15">(seats)&#160;</text><text text-decoration="none" x="78" fill="#4b4b4b" font-size="10pt" font-family="noto_regular"  y="15"></text></g></g><g id="j0TGZOrWEjx"><mask id="524d3" x="696" y="346" width="308" height="28" maskUnits="userSpaceOnUse"><rect x="696" y="346" width="308" height="28" fill="white" /><rect x="805" y="347.5" width="90" height="25" fill="black" /></mask><g mask="url(#524d3)"><path d="M 710,360 L 990,360" fill="none" stroke="#C43731" stroke-width="2" stroke-linecap="round" stroke-linejoin="round" stroke-dasharray="0 0"/><path d="M 990,360 L 983.0434782608696,353.50282485875704 M 990,360 L 983.0434782608696,366.49717514124296 Z" fill="rgb(255,255,255)" stroke="#C43731" stroke-width="2" stroke-linecap="round" stroke-linejoin="round"/></g><g transform="translate(808, 350.5)" width="84" height="19"><text text-decoration="none" x="2.5" fill="#161616" font-weight="bold" font-size="10pt" font-family="lt_regular"  y="15">submit&#160;</text><text text-decoration="none" x="44.5" fill="#161616" font-weight="bold" font-size="10pt" font-family="lt_regular"  y="15">(order)</text><text text-decoration="none" x="81.5" fill="#4b4b4b" font-size="10pt" font-family="noto_regular"  y="15"></text></g></g><g id="VUfjwS1gvEy"><mask id="cf1c9" x="996" y="386" width="308" height="28" maskUnits="userSpaceOnUse"><rect x="996" y="386" width="308" height="28" fill="white" /><rect x="1067" y="387.5" width="166" height="25" fill="black" /></mask><g mask="url(#cf1c9)"><path d="M 1010,400 L 1290,400" fill="none" stroke="#C43731" stroke-width="2" stroke-linecap="round" stroke-linejoin="round" stroke-dasharray="0 0"/><path d="M 1290,400 L 1283.0434782608695,393.50282485875704 M 1290,400 L 1283.0434782608695,406.49717514124296 Z" fill="rgb(255,255,255)" stroke="#C43731" stroke-width="2" stroke-linecap="round" stroke-linejoin="round"/></g><g transform="translate(1070, 390.5)" width="160" height="19"><text text-decoration="none" x="5" fill="#161616" font-weight="bold" font-size="10pt" font-family="lt_regular"  y="15">charge&#160;</text><text text-decoration="none" x="46" fill="#161616" font-weight="bold" font-size="10pt" font-family="lt_regular"  y="15">(customer,&#160;</text><text text-decoration="none" x="109" fill="#161616" font-weight="bold" font-size="10pt" font-family="lt_regular"  y="15">amount)</text><text text-decoration="none" x="155" fill="#4b4b4b" font-size="10pt" font-family="noto_regular"  y="15"></text></g></g><g id="UY4mUE3JbvC"><mask id="1a10a" x="996" y="426" width="308" height="28" maskUnits="userSpaceOnUse"><rect x="996" y="426" width="308" height="28" fill="white" /><rect x="1118.5" y="427.5" width="63" height="25" fill="black" /></mask><g mask="url(#1a10a)"><path d="M 1010,440 L 1290,440" fill="none" stroke="#C43731" stroke-width="2" stroke-linecap="round" stroke-linejoin="round" stroke-dasharray="0 0"/><path d="M 1010,440 L 1016.9565217391304,446.49717514124296 M 1010,440 L 1016.9565217391304,433.50282485875704 Z" fill="rgb(255,255,255)" stroke="#C43731" stroke-width="2" stroke-linecap="round" stroke-linejoin="round"/></g><g transform="translate(1121.5, 430.5)" width="57" height="19"><text text-decoration="none" x="2" fill="#161616" font-weight="bold" font-size="10pt" font-family="lt_regular"  y="15">authorize</text><text text-decoration="none" x="55" fill="#4b4b4b" font-size="10pt" font-family="noto_regular"  y="15"></text></g></g><g id="Ssz82gFIm20"><mask id="6037b" x="696" y="466" width="308" height="28" maskUnits="userSpaceOnUse"><rect x="696" y="466" width="308" height="28" fill="white" /><rect x="837" y="467.5" width="26" height="25" fill="black" /></mask><g mask="url(#6037b)"><path d="M 990,480 L 710,480" fill="none" stroke="#C43731" stroke-width="2" stroke-linecap="round" stroke-linejoin="round" stroke-dasharray="0 0"/><path d="M 710,480 L 716.9565217391304,486.49717514124296 M 710,480 L 716.9565217391304,473.50282485875704 Z" fill="rgb(255,255,255)" stroke="#C43731" stroke-width="2" stroke-linecap="round" stroke-linejoin="round"/></g><g transform="translate(840, 470.5)" width="20" height="19"><text text-decoration="none" x="0.5" fill="#161616" font-weight="bold" font-size="10pt" font-family="lt_regular"  y="15">OK</text><text text-decoration="none" x="19.5" fill="#4b4b4b" font-size="10pt" font-family="noto_regular"  y="15"></text></g></g><g id="HzhtPuK3nRM"><mask id="a2903" x="436" y="506" width="268" height="29" maskUnits="userSpaceOnUse"><rect x="436" y="506" width="268" height="29" fill="white" /><rect x="520.3408593591263" y="508.0381630860037" width="81" height="25" fill="black" /></mask><g mask="url(#a2903)"><path d="M 690,520 L 450,521" fill="none" stroke="#C43731" stroke-width="2" stroke-linecap="round" stroke-linejoin="round" stroke-dasharray="0 0"/><path d="M 450,521 L 456.9724375213815,527.4800921701324 M 450,521 L 456.94056410249476,514.4857809783413 Z" fill="rgb(255,255,255)" stroke="#C43731" stroke-width="2" stroke-linecap="round" stroke-linejoin="round"/></g><g transform="translate(523.3408593591263, 511.0381630860037)" width="75" height="19"><text text-decoration="none" x="2.5" fill="#161616" font-weight="bold" font-size="10pt" font-family="lt_regular"  y="15">print&#160;</text><text text-decoration="none" x="32.5" fill="#161616" font-weight="bold" font-size="10pt" font-family="lt_regular"  y="15">invoice</text><text text-decoration="none" x="72.5" fill="#4b4b4b" font-size="10pt" font-family="noto_regular"  y="15"></text></g></g></svg>